<svg width="1212" height="400" viewBox="0 0 1212 400" fill="none" xmlns="http://www.w3.org/2000/svg">
<path fill-rule="evenodd" clip-rule="evenodd" d="M231.172 1.05654C260.652 7.1139 277.558 36.6167 273.391 73.8188C268.283 119.426 252.588 157.014 235.812 185.579C248.867 186.264 261.845 191.01 272.146 201.263C282.575 211.643 288.766 226.168 290.874 243.662C292.393 256.276 291.349 269.698 289.81 282.049C289.03 288.309 288.078 294.608 287.17 300.604L287.131 300.861C286.224 306.846 285.365 312.518 284.674 318.003C283.241 329.375 282.755 338.411 283.727 345.339C284.659 351.982 286.618 354.627 288.427 356.009C291.567 358.407 297.253 360.61 306.233 361.41C315 362.19 325.451 361.497 336.547 359.529C352.322 356.731 367.834 351.65 379.808 346.102C367.466 328.339 362.367 306.773 362.316 286.315C362.244 257.836 371.845 228.182 389.43 207.993C412.862 181.09 446.712 174.01 473.36 185.848C486.656 191.755 497.776 202.307 503.973 216.654C510.178 231.019 510.937 247.952 505.817 265.959C494.77 304.811 467.384 332.881 441.421 350.772C474.884 365.26 528.743 366.179 580.18 312.725C576.614 295.368 575.73 278.719 576.007 266.41C576.012 266.212 576.02 266.014 576.03 265.817C576.012 265.486 576.003 265.151 576.003 264.815C576.003 219.602 578.503 187.756 590.353 128.506C598.921 85.6615 613.14 51.87 630.717 30.2246C648.026 8.91097 673.214 -4.96809 699.312 7.59737C722.885 18.9474 728.76 44.9183 728.628 69.475C728.489 95.1492 721.942 127.541 711.838 163.664C694.745 224.771 644.328 292.475 622.107 320.499C621.493 321.274 620.828 321.984 620.12 322.63C621.035 325.24 622.042 327.804 623.146 330.297C631.951 350.162 645.613 363.25 668.453 363.821C699.706 364.602 727.252 350.506 750.62 330.716C756.418 325.805 761.871 320.616 766.966 315.333C766.186 312.661 765.478 309.941 764.837 307.18C763.593 302.129 762.651 297.078 762.036 292.09C758.781 269.33 759.254 244.535 761.526 220.245C764.869 184.501 772.33 147.835 779.46 116.787C787.57 81.4681 800.308 52.087 816.061 32.3554C831.374 13.175 853.789 -1.30762 878.845 7.28978C886.804 10.0208 894.506 14.4324 900.76 21.54C907.009 28.6426 910.881 37.3799 912.858 47.3028C916.651 66.3382 913.844 91.7794 905.463 125.195C890.538 184.697 855.431 254.83 834.629 287.074C834.472 287.317 834.309 287.556 834.143 287.789C833.794 288.493 833.396 289.181 832.947 289.85C826.923 298.821 818.817 310.34 808.744 322.52C811.511 327.978 814.721 333.23 818.312 338.071C830.251 354.168 844.067 362.804 856.75 363.331C878.078 364.216 896.155 356.803 912.12 340.763C928.601 324.205 943.088 298.105 954.882 261.76C955.09 261.117 955.331 260.494 955.603 259.893C955.712 258.887 955.908 257.876 956.195 256.87C959.807 244.23 968.117 225.943 981.917 210.463C995.921 194.753 1016.71 180.815 1044.5 180.815C1045.4 180.815 1046.28 180.822 1047.15 180.835C1047.43 180.822 1047.72 180.815 1048 180.815C1053.38 180.815 1058.46 181.201 1063.27 181.933C1069.65 182.753 1075.3 183.999 1080.44 185.589C1090.16 188.6 1097.27 192.62 1102.92 196.022C1103.8 196.557 1104.63 197.057 1105.4 197.525L1105.42 197.537L1105.42 197.538C1109.79 200.189 1112.48 201.823 1115.84 203.129C1119.24 204.448 1123.72 205.514 1131.03 205.322C1154.05 204.716 1173.51 188.219 1179.88 180.154C1186.04 172.355 1197.36 171.029 1205.16 177.193C1212.96 183.357 1214.29 194.677 1208.12 202.476C1198.17 215.079 1169.75 240.315 1131.98 241.309C1130.82 241.34 1129.69 241.35 1128.58 241.341C1133.33 257.455 1134.07 273.659 1132.98 285.869C1132.49 303.658 1127.46 329.908 1113.38 352.767C1098.66 376.669 1073.72 397.085 1035.3 398.798C1016.49 399.636 1000.13 395.577 986.749 386.875C973.426 378.211 964.377 365.803 958.657 352.12C957.57 349.52 956.596 346.858 955.729 344.145C950.132 352.292 944.111 359.653 937.636 366.159C915.101 388.799 887.428 400.635 855.256 399.3C827.377 398.143 804.692 380.139 789.397 359.518C787.147 356.483 785.006 353.329 782.984 350.079C780.048 352.827 777.015 355.537 773.886 358.187C746.67 381.237 710.8 400.891 667.553 399.81C629.129 398.849 605.873 376.204 592.86 350.431C524.438 411.049 449.02 401.435 406.705 372.695C389.697 382.513 365.91 390.883 342.834 394.976C329.617 397.32 315.849 398.409 303.039 397.268C290.44 396.146 277.189 392.724 266.578 384.621C254.638 375.503 249.785 362.524 248.076 350.339C246.407 338.438 247.452 325.443 248.957 313.502C249.705 307.567 250.622 301.51 251.506 295.676L251.506 295.674L251.506 295.672L251.576 295.212C252.494 289.151 253.374 283.313 254.086 277.598C255.532 265.995 256.112 256.104 255.132 247.968C253.729 236.326 250.062 230.075 246.75 226.778C243.538 223.582 239.242 221.733 233.551 221.512C221.255 221.037 204.371 228.569 192.26 242.923C181.427 255.763 171.457 280.017 163.368 308.216C155.496 335.655 150.141 364.1 147.303 382.989C145.826 392.82 136.66 399.592 126.829 398.116C116.998 396.639 110.226 387.472 111.703 377.642C114.179 361.157 118.464 337.765 124.631 313.572C114.444 321.212 103.27 329.006 92.261 336.397C67.9573 352.714 42.8649 368.109 27.1037 377.345C18.5268 382.371 7.49932 379.493 2.47308 370.916C-2.55316 362.339 0.325209 351.312 8.90209 346.286C24.1409 337.355 48.5985 322.35 72.1947 306.508C96.2396 290.366 117.86 274.357 128.571 263.294C129.687 262.142 130.92 261.171 132.232 260.381C133.547 247.909 134.872 234.543 136.241 220.728L136.241 220.727C137.901 203.972 139.627 186.556 141.481 169.271C144.115 144.702 146.996 120.573 150.284 99.6876C153.518 79.1489 157.327 60.5006 162.126 47.5575C174.51 14.158 202.632 -4.80772 231.172 1.05654ZM1058.26 217.585C1054.37 217.105 1049.84 216.815 1044.5 216.815C1029.9 216.815 1018.18 223.878 1008.79 234.418C999.189 245.187 993.199 258.401 990.81 266.76C990.716 267.091 990.613 267.416 990.502 267.737C990.472 268.951 990.318 270.181 990.031 271.411C984.271 296.064 984.643 320.941 991.872 338.236C995.364 346.591 1000.23 352.701 1006.38 356.696C1012.46 360.654 1021.11 363.394 1033.7 362.833C1058.09 361.746 1073.06 349.578 1082.72 333.889C1092.85 317.442 1096.72 297.464 1097.01 284.426L1097.02 283.759L1097.08 283.094C1098.27 270.737 1096.55 253.098 1089.09 239.33C1083.44 228.917 1074.38 220.163 1058.26 217.585ZM803.06 269.781C801.133 272.65 799.017 275.738 796.717 278.986C795.113 262.36 795.499 243.588 797.369 223.597C800.489 190.244 807.528 155.41 814.546 124.844C821.936 92.6629 832.948 68.9044 844.195 54.8161C855.882 40.1768 863.717 40.1594 867.161 41.341C870.555 42.5054 872.466 43.8817 873.732 45.3202C875.002 46.7638 876.555 49.3311 877.552 54.3369C879.708 65.1591 878.662 84.0725 870.544 116.436C856.788 171.277 823.576 237.8 804.378 267.557C804.003 268.139 803.665 268.734 803.365 269.34C803.261 269.485 803.159 269.632 803.06 269.781ZM611.999 274.31C635.442 242.132 665.616 195.265 677.168 153.967C687.064 118.59 692.517 89.9816 692.628 69.2809C692.746 47.4626 687.121 41.6835 683.694 40.0334C679.792 38.1543 671.48 37.1357 658.663 52.9187C646.116 68.37 633.584 95.9112 625.653 135.566C614.257 192.547 612.003 222.029 612.003 264.815C612.003 265.15 611.994 265.483 611.976 265.813C612.001 266.278 612.009 266.747 611.998 267.221C611.948 269.451 611.945 271.824 611.999 274.31ZM173.473 210.135C193.582 187.868 229.826 139.356 237.615 69.8119C240.448 44.5141 229.332 37.4306 223.926 36.3198C217.581 35.0159 203.953 38.3002 195.88 60.0732C192.429 69.3801 189.05 84.9401 185.846 105.287C182.697 125.287 179.891 148.72 177.275 173.11C175.969 185.29 174.707 197.758 173.473 210.135ZM410.876 327.57C402.598 316.838 398.356 302.34 398.316 286.224C398.262 264.921 405.661 244.169 416.577 231.638C430.587 215.552 447.831 213.9 458.744 218.748C464.228 221.184 468.506 225.33 470.925 230.93C473.336 236.513 474.413 244.777 471.189 256.113C461.754 289.299 434.916 313.568 410.876 327.57Z" fill="white"/>
<path fill-rule="evenodd" clip-rule="evenodd" d="M231.172 1.05654C260.652 7.1139 277.558 36.6167 273.391 73.8188C268.283 119.426 252.588 157.014 235.812 185.579C248.867 186.264 261.845 191.01 272.146 201.263C282.575 211.643 288.766 226.168 290.874 243.662C292.393 256.276 291.349 269.698 289.81 282.049C289.03 288.309 288.078 294.608 287.17 300.604L287.131 300.861C286.224 306.846 285.365 312.518 284.674 318.003C283.241 329.375 282.755 338.411 283.727 345.339C284.659 351.982 286.618 354.627 288.427 356.009C291.567 358.407 297.253 360.61 306.233 361.41C315 362.19 325.451 361.497 336.547 359.529C352.322 356.731 367.834 351.65 379.808 346.102C367.466 328.339 362.367 306.773 362.316 286.315C362.244 257.836 371.845 228.182 389.43 207.993C412.862 181.09 446.712 174.01 473.36 185.848C486.656 191.755 497.776 202.307 503.973 216.654C510.178 231.019 510.937 247.952 505.817 265.959C494.77 304.811 467.384 332.881 441.421 350.772C474.884 365.26 528.743 366.179 580.18 312.725C576.614 295.368 575.73 278.719 576.007 266.41C576.012 266.212 576.02 266.014 576.03 265.817C576.012 265.486 576.003 265.151 576.003 264.815C576.003 219.602 578.503 187.756 590.353 128.506C598.921 85.6615 613.14 51.87 630.717 30.2246C648.026 8.91097 673.214 -4.96809 699.312 7.59737C722.885 18.9474 728.76 44.9183 728.628 69.475C728.489 95.1492 721.942 127.541 711.838 163.664C694.745 224.771 644.328 292.475 622.107 320.499C621.493 321.274 620.828 321.984 620.12 322.63C621.035 325.24 622.042 327.804 623.146 330.297C631.951 350.162 645.613 363.25 668.453 363.821C699.706 364.602 727.252 350.506 750.62 330.716C756.418 325.805 761.871 320.616 766.966 315.333C766.186 312.661 765.478 309.941 764.837 307.18C763.593 302.129 762.651 297.078 762.036 292.09C758.781 269.33 759.254 244.535 761.526 220.245C764.869 184.501 772.33 147.835 779.46 116.787C787.57 81.4681 800.308 52.087 816.061 32.3554C831.374 13.175 853.789 -1.30762 878.845 7.28978C886.804 10.0208 894.506 14.4324 900.76 21.54C907.009 28.6426 910.881 37.3799 912.858 47.3028C916.651 66.3382 913.844 91.7794 905.463 125.195C890.538 184.697 855.431 254.83 834.629 287.074C834.472 287.317 834.309 287.556 834.143 287.789C833.794 288.493 833.396 289.181 832.947 289.85C826.923 298.821 818.817 310.34 808.744 322.52C811.511 327.978 814.721 333.23 818.312 338.071C830.251 354.168 844.067 362.804 856.75 363.331C878.078 364.216 896.155 356.803 912.12 340.763C928.601 324.205 943.088 298.105 954.882 261.76C955.09 261.117 955.331 260.494 955.603 259.893C955.712 258.887 955.908 257.876 956.195 256.87C959.807 244.23 968.117 225.943 981.917 210.463C995.921 194.753 1016.71 180.815 1044.5 180.815C1045.4 180.815 1046.28 180.822 1047.15 180.835C1047.43 180.822 1047.72 180.815 1048 180.815C1053.38 180.815 1058.46 181.201 1063.27 181.933C1069.65 182.753 1075.3 183.999 1080.44 185.589C1090.16 188.6 1097.27 192.62 1102.92 196.022C1103.8 196.557 1104.63 197.057 1105.4 197.525L1105.42 197.537L1105.42 197.538C1109.79 200.189 1112.48 201.823 1115.84 203.129C1119.24 204.448 1123.72 205.514 1131.03 205.322C1154.05 204.716 1173.51 188.219 1179.88 180.154C1186.04 172.355 1197.36 171.029 1205.16 177.193C1212.96 183.357 1214.29 194.677 1208.12 202.476C1198.17 215.079 1169.75 240.315 1131.98 241.309C1130.82 241.34 1129.69 241.35 1128.58 241.341C1133.33 257.455 1134.07 273.659 1132.98 285.869C1132.49 303.658 1127.46 329.908 1113.38 352.767C1098.66 376.669 1073.72 397.085 1035.3 398.798C1016.49 399.636 1000.13 395.577 986.749 386.875C973.426 378.211 964.377 365.803 958.657 352.12C957.57 349.52 956.596 346.858 955.729 344.145C950.132 352.292 944.111 359.653 937.636 366.159C915.101 388.799 887.428 400.635 855.256 399.3C827.377 398.143 804.692 380.139 789.397 359.518C787.147 356.483 785.006 353.329 782.984 350.079C780.048 352.827 777.015 355.537 773.886 358.187C746.67 381.237 710.8 400.891 667.553 399.81C629.129 398.849 605.873 376.204 592.86 350.431C524.438 411.049 449.02 401.435 406.705 372.695C389.697 382.513 365.91 390.883 342.834 394.976C329.617 397.32 315.849 398.409 303.039 397.268C290.44 396.146 277.189 392.724 266.578 384.621C254.638 375.503 249.785 362.524 248.076 350.339C246.407 338.438 247.452 325.443 248.957 313.502C249.705 307.567 250.622 301.51 251.506 295.676L251.506 295.674L251.506 295.672L251.576 295.212C252.494 289.151 253.374 283.313 254.086 277.598C255.532 265.995 256.112 256.104 255.132 247.968C253.729 236.326 250.062 230.075 246.75 226.778C243.538 223.582 239.242 221.733 233.551 221.512C221.255 221.037 204.371 228.569 192.26 242.923C181.427 255.763 171.457 280.017 163.368 308.216C155.496 335.655 150.141 364.1 147.303 382.989C145.826 392.82 136.66 399.592 126.829 398.116C116.998 396.639 110.226 387.472 111.703 377.642C114.179 361.157 118.464 337.765 124.631 313.572C114.444 321.212 103.27 329.006 92.261 336.397C67.9573 352.714 42.8649 368.109 27.1037 377.345C18.5268 382.371 7.49932 379.493 2.47308 370.916C-2.55316 362.339 0.325209 351.312 8.90209 346.286C24.1409 337.355 48.5985 322.35 72.1947 306.508C96.2396 290.366 117.86 274.357 128.571 263.294C129.687 262.142 130.92 261.171 132.232 260.381C133.547 247.909 134.872 234.543 136.241 220.728L136.241 220.727C137.901 203.972 139.627 186.556 141.481 169.271C144.115 144.702 146.996 120.573 150.284 99.6876C153.518 79.1489 157.327 60.5006 162.126 47.5575C174.51 14.158 202.632 -4.80772 231.172 1.05654ZM1058.26 217.585C1054.37 217.105 1049.84 216.815 1044.5 216.815C1029.9 216.815 1018.18 223.878 1008.79 234.418C999.189 245.187 993.199 258.401 990.81 266.76C990.716 267.091 990.613 267.416 990.502 267.737C990.472 268.951 990.318 270.181 990.031 271.411C984.271 296.064 984.643 320.941 991.872 338.236C995.364 346.591 1000.23 352.701 1006.38 356.696C1012.46 360.654 1021.11 363.394 1033.7 362.833C1058.09 361.746 1073.06 349.578 1082.72 333.889C1092.85 317.442 1096.72 297.464 1097.01 284.426L1097.02 283.759L1097.08 283.094C1098.27 270.737 1096.55 253.098 1089.09 239.33C1083.44 228.917 1074.38 220.163 1058.26 217.585ZM803.06 269.781C801.133 272.65 799.017 275.738 796.717 278.986C795.113 262.36 795.499 243.588 797.369 223.597C800.489 190.244 807.528 155.41 814.546 124.844C821.936 92.6629 832.948 68.9044 844.195 54.8161C855.882 40.1768 863.717 40.1594 867.161 41.341C870.555 42.5054 872.466 43.8817 873.732 45.3202C875.002 46.7638 876.555 49.3311 877.552 54.3369C879.708 65.1591 878.662 84.0725 870.544 116.436C856.788 171.277 823.576 237.8 804.378 267.557C804.003 268.139 803.665 268.734 803.365 269.34C803.261 269.485 803.159 269.632 803.06 269.781ZM611.999 274.31C635.442 242.132 665.616 195.265 677.168 153.967C687.064 118.59 692.517 89.9816 692.628 69.2809C692.746 47.4626 687.121 41.6835 683.694 40.0334C679.792 38.1543 671.48 37.1357 658.663 52.9187C646.116 68.37 633.584 95.9112 625.653 135.566C614.257 192.547 612.003 222.029 612.003 264.815C612.003 265.15 611.994 265.483 611.976 265.813C612.001 266.278 612.009 266.747 611.998 267.221C611.948 269.451 611.945 271.824 611.999 274.31ZM173.473 210.135C193.582 187.868 229.826 139.356 237.615 69.8119C240.448 44.5141 229.332 37.4306 223.926 36.3198C217.581 35.0159 203.953 38.3002 195.88 60.0732C192.429 69.3801 189.05 84.9401 185.846 105.287C182.697 125.287 179.891 148.72 177.275 173.11C175.969 185.29 174.707 197.758 173.473 210.135ZM410.876 327.57C402.598 316.838 398.356 302.34 398.316 286.224C398.262 264.921 405.661 244.169 416.577 231.638C430.587 215.552 447.831 213.9 458.744 218.748C464.228 221.184 468.506 225.33 470.925 230.93C473.336 236.513 474.413 244.777 471.189 256.113C461.754 289.299 434.916 313.568 410.876 327.57Z" fill="black"/>
</svg>
