<svg xmlns="http://www.w3.org/2000/svg" xmlns:xlink="http://www.w3.org/1999/xlink" width="500" zoomAndPan="magnify" viewBox="0 0 375 374.999991" height="500" preserveAspectRatio="xMidYMid meet" version="1.0"><defs><g/></defs><g fill="#00000000"><g transform="translate(29.202399, 244.526645)"><g><path d="M 2.902344 0 L 37.160156 0 C 25.691406 -15.386719 23.953125 -33.675781 23.953125 -52.113281 C 37.597656 -52.113281 43.691406 -38.613281 49.789062 -24.96875 C 55.742188 -11.613281 61.835938 1.742188 76.789062 1.742188 C 79.835938 1.742188 83.175781 1.304688 86.804688 0 L 86.804688 -41.226562 C 83.902344 -40.933594 80.417969 -40.644531 76.789062 -40.644531 C 64.59375 -40.644531 47.175781 -47.175781 47.175781 -58.207031 C 73.59375 -60.820312 86.949219 -77.222656 86.949219 -96.675781 C 86.949219 -124.835938 58.933594 -130.789062 31.933594 -130.789062 C 18.726562 -130.789062 8.417969 -129.917969 3.484375 -129.046875 C 9.871094 -110.320312 12.773438 -88.835938 12.773438 -66.917969 C 12.773438 -42.53125 9 -20.175781 2.902344 0 Z M 67.789062 -100.449219 C 71.417969 -100.449219 73.304688 -98.128906 73.304688 -94.207031 C 73.304688 -80.5625 46.886719 -59.078125 36 -59.078125 C 32.371094 -59.078125 30.339844 -61.691406 30.339844 -65.464844 C 30.339844 -79.257812 56.757812 -100.449219 67.789062 -100.449219 Z M 67.789062 -100.449219 "/></g></g><g transform="translate(118.620208, 244.526645)"><g><path  d="M 2.902344 0 L 34.839844 0 C 25.839844 -17.417969 22.210938 -30.917969 22.210938 -43.984375 C 22.210938 -82.886719 54.144531 -100.449219 67.355469 -100.449219 C 70.691406 -100.449219 73.160156 -98.851562 73.160156 -94.5 C 73.160156 -89.5625 68.949219 -84.480469 63.433594 -77.949219 C 54 -66.484375 41.078125 -51.097656 41.078125 -30.191406 C 41.078125 -19.304688 44.5625 -9.144531 49.207031 0 L 85.0625 0 C 76.644531 -16.113281 73.449219 -30.917969 73.449219 -43.984375 C 73.449219 -82.886719 105.386719 -100.449219 118.449219 -100.449219 C 121.933594 -100.449219 124.402344 -98.851562 124.402344 -94.5 C 124.402344 -89.5625 120.046875 -84.480469 114.675781 -77.949219 C 105.238281 -66.484375 92.320312 -51.097656 92.320312 -30.191406 C 92.320312 -21.191406 94.5 -11.324219 100.304688 0 L 141.238281 0 C 134.851562 -18.582031 131.949219 -40.207031 131.949219 -61.984375 C 131.949219 -86.371094 135.578125 -109.59375 141.382812 -129.046875 C 137.03125 -129.917969 130.0625 -130.789062 124.980469 -130.789062 C 104.949219 -130.789062 87.386719 -117.144531 83.03125 -96.53125 L 79.402344 -96.53125 C 79.546875 -98.417969 79.691406 -100.304688 79.691406 -102.480469 C 79.691406 -123.964844 64.59375 -130.789062 28.160156 -130.789062 C 23.515625 -130.789062 10.597656 -130.351562 3.484375 -129.046875 C 9.871094 -110.320312 12.773438 -88.835938 12.773438 -66.917969 C 12.773438 -42.53125 9 -20.175781 2.902344 0 Z M 2.902344 0 "/></g></g><g transform="translate(263.488671, 244.526645)"><g><path d="M 37.160156 1.742188 C 52.257812 1.742188 72 1.015625 82.304688 0 L 82.304688 -41.078125 C 73.886719 -33.96875 42.820312 -26.417969 24.386719 -26.417969 C 14.660156 -26.417969 6.53125 -28.886719 6.53125 -34.839844 C 6.53125 -40.0625 13.0625 -37.886719 40.207031 -49.355469 C 59.804688 -57.628906 80.707031 -72.433594 80.707031 -100.738281 C 80.707031 -126.144531 61.402344 -130.789062 39.484375 -130.789062 C 24.242188 -130.789062 18.144531 -129.773438 5.515625 -129.046875 L 5.515625 -88.257812 C 21.191406 -96.964844 41.226562 -101.320312 55.449219 -101.320312 C 66.335938 -101.320312 76.789062 -98.417969 76.789062 -92.609375 C 76.789062 -82.304688 54.433594 -78.242188 31.355469 -69.242188 C 13.644531 -62.5625 2.757812 -51.820312 2.757812 -35.5625 C 2.757812 -2.03125 27.433594 1.742188 37.160156 1.742188 Z M 37.160156 1.742188 "/></g></g></g></svg>